<?xml version="1.0" encoding="UTF-8" standalone="no"?>
<!-- Uploaded to: SVG Repo, www.svgrepo.com, Generator: SVG Repo Mixer Tools -->

<svg
   width="800px"
   height="800px"
   viewBox="0 0 24 24"
   fill="none"
   version="1.1"
   id="svg1"
   sodipodi:docname="org.techtowers.CloudSurge-symbolic.svg"
   inkscape:version="1.4 (e7c3feb100, 2024-10-09)"
   inkscape:export-filename="cloudsurge.png"
   inkscape:export-xdpi="144"
   inkscape:export-ydpi="144"
   xmlns:inkscape="http://www.inkscape.org/namespaces/inkscape"
   xmlns:sodipodi="http://sodipodi.sourceforge.net/DTD/sodipodi-0.dtd"
   xmlns="http://www.w3.org/2000/svg"
   xmlns:svg="http://www.w3.org/2000/svg">
  <defs
     id="defs1" />
  <sodipodi:namedview
     id="namedview1"
     pagecolor="#505050"
     bordercolor="#eeeeee"
     borderopacity="1"
     inkscape:showpageshadow="0"
     inkscape:pageopacity="0"
     inkscape:pagecheckerboard="0"
     inkscape:deskcolor="#505050"
     showgrid="false"
     inkscape:zoom="0.99625"
     inkscape:cx="400.50188"
     inkscape:cy="400"
     inkscape:window-width="1920"
     inkscape:window-height="1080"
     inkscape:window-x="0"
     inkscape:window-y="0"
     inkscape:window-maximized="1"
     inkscape:current-layer="svg1"
     inkscape:export-bgcolor="#ffffff00" />
  <path
     d="m 14.341348,13.867324 c 0.1914,0.01424 0.377378,0.101499 0.512578,0.258399 0.2704,0.3138 0.235167,0.787275 -0.07863,1.057675 l -2.755781,2.374395 h 2.266172 c 0.3135,0 0.594025,0.195106 0.703125,0.488906 0.1091,0.2939 0.02397,0.624695 -0.213633,0.829395 l -4.285664,3.692285 c -0.3138,0.2703 -0.7873747,0.235108 -1.0577347,-0.07869 -0.27036,-0.313799 -0.2351186,-0.787392 0.078691,-1.057792 L 12.266074,19.057793 H 10.00002 c -0.3135005,0 -0.5939755,-0.194889 -0.7031255,-0.488789 -0.10915,-0.2939 -0.023926,-0.624677 0.2135742,-0.829277 l 4.2857223,-3.692754 c 0.1569,-0.13515 0.353757,-0.193886 0.545157,-0.179649 z"
     style="clip-rule:evenodd;fill:#000000;fill-rule:evenodd;fill-opacity:1"
     id="path3"
     inkscape:label="thunder" />
  <path
     d="m 12.486211,1.26 c -3.5617401,0 -6.4642969,2.8556912 -6.4642969,6.3970312 0,0.38707 0.034821,0.766524 0.1016015,1.135254 C 3.4298756,8.8820752 1.26,11.070487 1.26,13.774687 c 0,2.7617 2.2629727,4.985333 5.0357227,4.985333 0.41422,0 0.75,-0.3358 0.75,-0.75 0,-0.4142 -0.33578,-0.75 -0.75,-0.75 -1.96111,0 -3.5357227,-1.568833 -3.5357227,-3.485333 0,-1.9165 1.5746127,-3.485273 3.5357227,-3.485273 0.23594,0 0.4657676,0.02268 0.6875976,0.06568 0.46587,0.0904 0.8987603,0.271107 1.2795703,0.523007 0.34547,0.2286 0.8107474,0.133801 1.0392774,-0.211699 C 9.530698,10.320906 9.4359387,9.8555903 9.0904688,9.6270703 8.6699288,9.3488803 8.2045047,9.1315955 7.7073047,8.9881055 7.5866147,8.5654855 7.5219141,8.1191913 7.5219141,7.6570312 7.5219141,4.9608012 9.7361109,2.76 12.486211,2.76 c 2.166,0 4.000765,1.3663119 4.681465,3.2636719 -0.2854,-0.03812 -0.576492,-0.057773 -0.871992,-0.057773 -0.7531,0 -1.47779,0.1277613 -2.15209,0.3632813 -0.391,0.13659 -0.597323,0.5643211 -0.460723,0.9553711 0.1366,0.39104 0.56433,0.5973126 0.95543,0.4607226 0.5172,-0.18068 1.074783,-0.279375 1.657383,-0.279375 0.5711,0 1.118138,0.094801 1.626738,0.268711 1.9483,0.66624 3.337558,2.4915616 3.337558,4.6282616 0,2.3401 -1.667096,4.306938 -3.906796,4.785938 -0.4051,0.0866 -0.663163,0.485173 -0.576563,0.890273 0.0866,0.405 0.485156,0.663221 0.890156,0.576621 2.9055,-0.6214 5.093203,-3.178832 5.093203,-6.252832 0,-2.6436099 -1.618674,-4.9053419 -3.918574,-5.8815819 C 18.282406,3.5037091 15.644311,1.26 12.486211,1.26 Z"
     style="clip-rule:evenodd;fill:#000000;fill-rule:evenodd;fill-opacity:1"
     id="path2"
     inkscape:label="cloud" />
</svg>
